<svg width="183" height="47" viewBox="0 0 183 47" fill="none" xmlns="http://www.w3.org/2000/svg">
<path fill-rule="evenodd" clip-rule="evenodd" d="M7.3408 40.6575L4.67548 42.2805C2.62065 43.5164 0 42.0423 0 39.645V7.36334C0 4.95115 2.62065 3.47703 4.67548 4.7278L13.5797 10.1329C13.1777 10.0584 12.7608 10.0138 12.329 10.0138C8.10019 10.0138 4.66059 13.3491 4.45213 17.5184H7.81728C8.30866 17.5184 8.80003 17.9204 8.82981 18.4267C8.85959 18.9776 8.41289 19.4392 7.86195 19.4392H4.45213V21.3153H7.86195C8.41289 21.3153 8.85959 21.762 8.82981 22.3279C8.80003 22.849 8.33844 23.2362 7.81728 23.2362H4.45213V25.0974H7.81728C8.30866 25.0974 8.80003 25.5143 8.82981 26.0206C8.85959 26.5715 8.41289 27.0331 7.86195 27.0331H4.45213C4.66059 31.2023 8.10019 34.5228 12.329 34.5228C12.463 34.5228 12.597 34.5079 12.7459 34.5079L11.1527 36.2203V38.3496L11.0186 38.424H9.67854C8.42778 38.424 7.40036 39.4217 7.3408 40.6575ZM31.284 26.1397L13.5053 36.9201V34.4335C17.1682 33.8826 20.0122 30.8003 20.1909 27.0331H16.7811C16.2302 27.0331 15.7984 26.5715 15.8133 26.0206C15.843 25.5143 16.3344 25.0974 16.8407 25.0974H20.2058V23.2362H16.7811C16.2302 23.2362 15.7984 22.7746 15.8133 22.2236C15.843 21.7025 16.3195 21.3153 16.8407 21.3153H20.2058V19.4392H16.8407C16.3344 19.4392 15.843 19.0372 15.8133 18.5309C15.7984 17.98 16.2302 17.5184 16.7811 17.5184H20.1909C20.1165 15.8953 19.5507 14.4063 18.6424 13.1854L31.284 20.8686C33.2644 22.0598 33.2644 24.9336 31.284 26.1397Z" fill="url(#paint0_linear_3688_1852)"/>
<path style="mix-blend-mode:multiply" fill-rule="evenodd" clip-rule="evenodd" d="M12.7459 34.5079L11.1527 36.2203V38.3496L11.0186 38.424H9.67854C8.42778 38.424 7.40036 39.4217 7.3408 40.6575L4.67548 42.2805C2.62065 43.5164 0 42.0423 0 39.645V7.36334C0 4.95115 2.62065 3.47703 4.67548 4.7278L13.5797 10.1329C13.1777 10.0584 12.7608 10.0138 12.329 10.0138C8.10019 10.0138 4.66059 13.3491 4.45213 17.5184H7.81728C8.30866 17.5184 8.80003 17.9204 8.82981 18.4267C8.85959 18.9776 8.41289 19.4392 7.86195 19.4392H4.45213V21.3153H7.86195C8.41289 21.3153 8.85959 21.762 8.82981 22.3279C8.80003 22.849 8.33844 23.2362 7.81728 23.2362H4.45213V25.0974H7.81728C8.30866 25.0974 8.80003 25.5143 8.82981 26.0206C8.85959 26.5715 8.41289 27.0331 7.86195 27.0331H4.45213C4.66059 31.2023 8.10019 34.5228 12.329 34.5228C12.463 34.5228 12.597 34.5079 12.7459 34.5079ZM23.02 31.1428L13.5053 36.9201V34.4335C17.1682 33.8826 20.0122 30.8003 20.1909 27.0331H16.7811C16.2302 27.0331 15.7984 26.5715 15.8133 26.0206C15.843 25.5143 16.3344 25.0974 16.8407 25.0974H20.2058V23.2362H16.7811C16.2302 23.2362 15.7984 22.7746 15.8133 22.2236C15.843 21.7025 16.3195 21.3153 16.8407 21.3153H20.2058V19.7668C20.9057 21.4345 21.5013 23.1617 21.9777 24.9485C22.5436 27.0927 22.886 29.1624 23.02 31.1428ZM16.7811 17.5184H19.1635C19.4812 18.1437 19.779 18.784 20.0569 19.4392H16.8407C16.3344 19.4392 15.843 19.0372 15.8133 18.5309C15.7984 17.98 16.2302 17.5184 16.7811 17.5184Z" fill="url(#paint1_linear_3688_1852)"/>
<path style="mix-blend-mode:screen" fill-rule="evenodd" clip-rule="evenodd" d="M4.45213 20.6453V19.4392H7.86195C8.41289 19.4392 8.85959 18.9776 8.82981 18.4267C8.80003 17.9204 8.30866 17.5184 7.81729 17.5184H4.45213C4.66059 13.3491 8.10019 10.0138 12.329 10.0138C12.7608 10.0138 13.1777 10.0584 13.5797 10.1329L4.67548 4.7278C2.62065 3.47703 0 4.95115 0 7.36334V16.9823C1.31033 18.3075 2.79933 19.5285 4.45213 20.6453ZM8.82981 22.3279C8.85959 21.762 8.41289 21.3153 7.86195 21.3153H5.47954C6.44243 21.9109 7.45 22.4668 8.50223 22.983C8.6958 22.8192 8.81492 22.581 8.82981 22.3279ZM31.284 20.8686L18.6424 13.1854C19.5507 14.4063 20.1165 15.8953 20.1909 17.5184H16.7811C16.2302 17.5184 15.7984 17.98 15.8133 18.5309C15.843 19.0371 16.3344 19.4392 16.8407 19.4392H20.2058V21.3153H16.8407C16.3195 21.3153 15.843 21.7025 15.8133 22.2236C15.7984 22.7746 16.2302 23.2361 16.7811 23.2361H20.2058V25.0974H16.8407C16.4535 25.0974 16.0962 25.3357 15.9175 25.6632C17.3767 26.0206 18.8806 26.3035 20.4143 26.4822C24.3304 26.9587 28.038 26.78 31.3883 26.0653C33.2495 24.8294 33.2197 22.0449 31.284 20.8686Z" fill="url(#paint2_linear_3688_1852)"/>
<path style="mix-blend-mode:screen" fill-rule="evenodd" clip-rule="evenodd" d="M31.284 26.1397L13.5053 36.9201V34.4334C17.1682 33.8825 20.0122 30.8002 20.1909 27.0331H16.7811C16.2302 27.0331 15.7984 26.5715 15.8133 26.0205C15.843 25.5143 16.3344 25.0974 16.8407 25.0974H20.2058V23.2361H16.7811C16.2302 23.2361 15.7984 22.7745 15.8133 22.2236C15.843 21.7024 16.3195 21.3153 16.8407 21.3153H20.2058V19.4391H16.8407C16.3344 19.4391 15.843 19.0371 15.8133 18.5308C15.7984 17.9799 16.2302 17.5183 16.7811 17.5183H20.1909C20.1314 16.3867 19.8336 15.3146 19.3571 14.3616C19.7045 14.3219 20.052 14.2872 20.3994 14.2574L31.284 20.8686C33.2644 22.0598 33.2644 24.9336 31.284 26.1397ZM0 39.6449V27.4798C1.19121 25.2314 2.79933 23.1319 4.73504 21.3153H7.86195C8.41289 21.3153 8.85959 21.762 8.82981 22.3278C8.80003 22.849 8.33844 23.2361 7.81729 23.2361H4.45213V25.0974H7.81729C8.30866 25.0974 8.80003 25.5143 8.82981 26.0205C8.85959 26.5715 8.41289 27.0331 7.86195 27.0331H4.45213C4.66059 31.2023 8.10019 34.5228 12.329 34.5228C12.463 34.5228 12.597 34.5079 12.7459 34.5079L11.1527 36.2202V38.3495L11.0186 38.424H9.67854C8.42778 38.424 7.40036 39.4216 7.3408 40.6575L4.67548 42.2805C2.62065 43.5164 0 42.0422 0 39.6449ZM6.92388 19.4391C7.51948 18.9924 8.13494 18.5705 8.77025 18.1735C8.80003 18.2479 8.82981 18.3373 8.82981 18.4266C8.85959 18.9775 8.41289 19.4391 7.86195 19.4391H6.92388Z" fill="url(#paint3_linear_3688_1852)"/>
<path d="M43.7075 37V12.3891H54.0988C54.3381 12.3891 54.6571 12.4005 55.0559 12.4233C55.4661 12.4347 55.8307 12.4688 56.1497 12.5258C57.6195 12.7537 58.8216 13.2379 59.7559 13.9785C60.7016 14.7192 61.3966 15.6535 61.841 16.7815C62.2854 17.8981 62.5075 19.1457 62.5075 20.5244C62.5075 21.903 62.2797 23.1564 61.8239 24.2844C61.3795 25.401 60.6845 26.3296 59.7388 27.0702C58.8045 27.8108 57.6082 28.295 56.1497 28.5229C55.8307 28.5685 55.4661 28.6027 55.0559 28.6255C54.6457 28.6482 54.3267 28.6596 54.0988 28.6596H48.3563V37H43.7075ZM48.3563 24.3185H53.8937C54.133 24.3185 54.3951 24.3072 54.6799 24.2844C54.9648 24.2616 55.2268 24.216 55.4661 24.1476C56.0928 23.9767 56.577 23.6919 56.9188 23.2931C57.2606 22.8829 57.4942 22.4328 57.6195 21.9429C57.7563 21.4416 57.8246 20.9687 57.8246 20.5244C57.8246 20.08 57.7563 19.6128 57.6195 19.1229C57.4942 18.6216 57.2606 18.1715 56.9188 17.7727C56.577 17.3625 56.0928 17.072 55.4661 16.9011C55.2268 16.8327 54.9648 16.7872 54.6799 16.7644C54.3951 16.7416 54.133 16.7302 53.8937 16.7302H48.3563V24.3185ZM72.2024 37.5127C70.3452 37.5127 68.7158 37.0968 67.3144 36.2651C65.9129 35.4333 64.8191 34.2882 64.0329 32.8298C63.2581 31.36 62.8707 29.6737 62.8707 27.7709C62.8707 25.8453 63.2695 24.1533 64.0671 22.6949C64.8647 21.2251 65.9642 20.08 67.3656 19.2596C68.7671 18.4393 70.3793 18.0291 72.2024 18.0291C74.0596 18.0291 75.6889 18.445 77.0904 19.2767C78.5032 20.1085 79.6027 21.2593 80.3889 22.7291C81.1751 24.1875 81.5682 25.8681 81.5682 27.7709C81.5682 29.6851 81.1694 31.3771 80.3718 32.8469C79.5856 34.3053 78.4861 35.4504 77.0733 36.2822C75.6718 37.1025 74.0482 37.5127 72.2024 37.5127ZM72.2024 33.1716C73.695 33.1716 74.8059 32.6703 75.5351 31.6676C76.2757 30.6536 76.646 29.3547 76.646 27.7709C76.646 26.1302 76.27 24.8199 75.518 23.84C74.7774 22.8601 73.6722 22.3702 72.2024 22.3702C71.1883 22.3702 70.3565 22.5981 69.7071 23.0538C69.0576 23.5096 68.5734 24.1419 68.2544 24.9509C67.9467 25.7599 67.7929 26.6999 67.7929 27.7709C67.7929 29.423 68.1632 30.739 68.9038 31.7189C69.6558 32.6874 70.7553 33.1716 72.2024 33.1716ZM91.1033 37.5127C89.4056 37.5127 87.9187 37.0855 86.6426 36.2309C85.3665 35.3764 84.3695 34.2142 83.6517 32.7444C82.9452 31.2745 82.592 29.6167 82.592 27.7709C82.592 25.8909 82.9509 24.2217 83.6688 22.7633C84.398 21.2935 85.4177 20.137 86.728 19.2938C88.0383 18.4507 89.5765 18.0291 91.3426 18.0291C93.0972 18.0291 94.5728 18.4564 95.7691 19.3109C96.9655 20.1655 97.8713 21.3276 98.4866 22.7975C99.1019 24.2673 99.4095 25.9251 99.4095 27.7709C99.4095 29.6167 99.0962 31.2745 98.4695 32.7444C97.8542 34.2142 96.9313 35.3764 95.7008 36.2309C94.4702 37.0855 92.9377 37.5127 91.1033 37.5127ZM91.8553 33.3767C92.8922 33.3767 93.7182 33.1432 94.3335 32.676C94.9602 32.2088 95.4102 31.5537 95.6837 30.7105C95.9571 29.8674 96.0939 28.8875 96.0939 27.7709C96.0939 26.6543 95.9571 25.6744 95.6837 24.8313C95.4102 23.9881 94.9715 23.333 94.3677 22.8658C93.7752 22.3987 92.9947 22.1651 92.0262 22.1651C90.9894 22.1651 90.1348 22.4215 89.4626 22.9342C88.8017 23.4355 88.3118 24.1135 87.9928 24.968C87.6737 25.8112 87.5142 26.7455 87.5142 27.7709C87.5142 28.8078 87.668 29.7535 87.9757 30.608C88.2833 31.4512 88.7562 32.1234 89.3942 32.6247C90.0323 33.1261 90.8526 33.3767 91.8553 33.3767ZM96.0939 37V24.3527H95.5128V12.3891H100.196V37H96.0939ZM111.407 37.5127C109.493 37.5127 107.852 37.0855 106.485 36.2309C105.118 35.3764 104.07 34.2142 103.34 32.7444C102.611 31.2745 102.247 29.6167 102.247 27.7709C102.247 25.9023 102.623 24.2331 103.375 22.7633C104.138 21.2935 105.209 20.137 106.588 19.2938C107.966 18.4507 109.596 18.0291 111.476 18.0291C113.652 18.0291 115.475 18.5817 116.945 19.6869C118.426 20.7807 119.372 22.279 119.782 24.1818L115.133 25.4124C114.86 24.4553 114.381 23.709 113.697 23.1735C113.025 22.6379 112.262 22.3702 111.407 22.3702C110.427 22.3702 109.624 22.6095 108.997 23.088C108.371 23.5552 107.909 24.1989 107.613 25.0193C107.317 25.8282 107.169 26.7455 107.169 27.7709C107.169 29.3775 107.522 30.6821 108.228 31.6847C108.946 32.676 110.006 33.1716 111.407 33.1716C112.456 33.1716 113.253 32.9324 113.8 32.4538C114.347 31.9753 114.757 31.2916 115.031 30.4029L119.782 31.3942C119.258 33.3539 118.266 34.8636 116.808 35.9233C115.35 36.9829 113.549 37.5127 111.407 37.5127ZM126.285 37.5127C124.963 37.5127 123.841 37.2621 122.918 36.7607C122.006 36.248 121.311 35.5701 120.833 34.7269C120.366 33.8724 120.132 32.9324 120.132 31.9069C120.132 31.0524 120.263 30.2719 120.525 29.5655C120.787 28.859 121.209 28.2381 121.79 27.7025C122.382 27.1556 123.174 26.6999 124.165 26.3353C124.849 26.0846 125.664 25.8624 126.609 25.6687C127.555 25.475 128.626 25.2927 129.822 25.1218C131.019 24.9395 132.335 24.7401 133.77 24.5236L132.096 25.4465C132.096 24.3527 131.834 23.5495 131.309 23.0367C130.785 22.524 129.908 22.2676 128.677 22.2676C127.994 22.2676 127.282 22.4328 126.541 22.7633C125.8 23.0937 125.282 23.6805 124.986 24.5236L120.781 23.1905C121.249 21.6638 122.126 20.4218 123.413 19.4647C124.701 18.5076 126.456 18.0291 128.677 18.0291C130.307 18.0291 131.754 18.2798 133.018 18.7811C134.283 19.2824 135.24 20.1484 135.89 21.3789C136.254 22.0625 136.471 22.7462 136.539 23.4298C136.608 24.1135 136.642 24.8768 136.642 25.72V37H132.574V33.2058L133.155 33.992C132.255 35.2339 131.281 36.1341 130.233 36.6924C129.196 37.2393 127.88 37.5127 126.285 37.5127ZM127.276 33.8553C128.13 33.8553 128.848 33.7072 129.429 33.4109C130.022 33.1033 130.489 32.7558 130.831 32.3684C131.184 31.981 131.423 31.6562 131.549 31.3942C131.788 30.8928 131.925 30.3118 131.959 29.6509C132.004 28.9787 132.027 28.4204 132.027 27.976L133.394 28.3178C132.016 28.5457 130.899 28.7394 130.045 28.8989C129.19 29.047 128.501 29.1838 127.977 29.3091C127.453 29.4344 126.991 29.5712 126.592 29.7193C126.137 29.9016 125.766 30.101 125.481 30.3175C125.208 30.5225 125.003 30.7504 124.866 31.0011C124.741 31.2518 124.678 31.5309 124.678 31.8385C124.678 32.2601 124.781 32.6247 124.986 32.9324C125.202 33.2286 125.504 33.4565 125.892 33.616C126.279 33.7755 126.74 33.8553 127.276 33.8553ZM146.589 37.5127C144.265 37.5127 142.385 36.9886 140.949 35.9404C139.525 34.8807 138.659 33.3881 138.351 31.4625L143.102 30.7447C143.296 31.6107 143.723 32.2886 144.384 32.7785C145.056 33.2685 145.905 33.5135 146.931 33.5135C147.774 33.5135 148.423 33.3539 148.879 33.0349C149.335 32.7045 149.563 32.2487 149.563 31.6676C149.563 31.303 149.472 31.0125 149.289 30.796C149.107 30.5681 148.697 30.3459 148.059 30.1295C147.432 29.913 146.452 29.6281 145.119 29.2749C143.615 28.8875 142.413 28.4545 141.513 27.976C140.613 27.4975 139.963 26.9278 139.565 26.2669C139.166 25.5947 138.966 24.7857 138.966 23.84C138.966 22.655 139.268 21.6296 139.872 20.7636C140.476 19.8863 141.325 19.2141 142.419 18.7469C143.524 18.2684 144.823 18.0291 146.315 18.0291C147.763 18.0291 149.044 18.2513 150.161 18.6956C151.278 19.14 152.178 19.7724 152.861 20.5927C153.556 21.4131 153.984 22.3816 154.143 23.4982L149.392 24.3527C149.312 23.6691 149.016 23.1279 148.503 22.7291C147.99 22.3303 147.295 22.0967 146.418 22.0284C145.563 21.9714 144.874 22.0853 144.35 22.3702C143.837 22.655 143.581 23.0652 143.581 23.6007C143.581 23.9198 143.689 24.1875 143.906 24.404C144.134 24.6205 144.595 24.8427 145.29 25.0705C145.996 25.2984 147.067 25.5947 148.503 25.9593C149.905 26.3239 151.027 26.7512 151.87 27.2411C152.725 27.7196 153.346 28.3007 153.733 28.9844C154.12 29.6566 154.314 30.4713 154.314 31.4284C154.314 33.3198 153.63 34.8067 152.263 35.8891C150.896 36.9715 149.004 37.5127 146.589 37.5127ZM167.436 37C166.159 37.2393 164.906 37.3418 163.676 37.3076C162.456 37.2848 161.363 37.0741 160.394 36.6753C159.437 36.2651 158.708 35.6099 158.206 34.7098C157.751 33.8667 157.511 33.0121 157.489 32.1462C157.466 31.2688 157.454 30.2776 157.454 29.1724V13.4145H162.103V28.8989C162.103 29.6167 162.109 30.2662 162.12 30.8473C162.143 31.417 162.263 31.8727 162.479 32.2145C162.889 32.864 163.545 33.2172 164.445 33.2742C165.345 33.3312 166.342 33.2856 167.436 33.1375V37ZM154.31 22.1309V18.5418H167.436V22.1309H154.31ZM169.84 37V18.5418H173.942V23.0538L173.497 22.4727C173.737 21.8347 174.056 21.2536 174.454 20.7295C174.853 20.2053 175.343 19.7724 175.924 19.4305C176.369 19.1571 176.853 18.9463 177.377 18.7982C177.901 18.6387 178.442 18.5418 179.001 18.5076C179.559 18.4621 180.117 18.4735 180.675 18.5418V22.8829C180.163 22.7234 179.565 22.6721 178.881 22.7291C178.209 22.7747 177.599 22.9285 177.052 23.1905C176.505 23.4412 176.044 23.7773 175.668 24.1989C175.292 24.6091 175.007 25.099 174.813 25.6687C174.62 26.227 174.523 26.8594 174.523 27.5658V37H169.84Z" fill="white"/>
<defs>
<linearGradient id="paint0_linear_3688_1852" x1="23.5406" y1="-11.1315" x2="65.0595" y2="30.3874" gradientUnits="userSpaceOnUse">
<stop stop-color="#FD6D6D"/>
<stop offset="1" stop-color="#F97535"/>
</linearGradient>
<linearGradient id="paint1_linear_3688_1852" x1="-23.1895" y1="6.72857" x2="0.555087" y2="-15.7833" gradientUnits="userSpaceOnUse">
<stop stop-color="white"/>
<stop offset="0.987" stop-color="#D937BE"/>
<stop offset="1" stop-color="#D837BF"/>
</linearGradient>
<linearGradient id="paint2_linear_3688_1852" x1="20.5912" y1="-6.66742" x2="32.4836" y2="30.5707" gradientUnits="userSpaceOnUse">
<stop stop-color="#FD6D6D"/>
<stop offset="0.5" stop-color="#71381D"/>
<stop offset="1" stop-color="#F97535"/>
</linearGradient>
<linearGradient id="paint3_linear_3688_1852" x1="8.7631" y1="-10.274" x2="35.9592" y2="23.1162" gradientUnits="userSpaceOnUse">
<stop stop-color="#FD6D6D"/>
<stop offset="1"/>
</linearGradient>
</defs>
</svg>
