<svg xmlns="http://www.w3.org/2000/svg" width="17" height="17" viewBox="0 0 17 17" fill="none">
  <path d="M14.2048 3.98666C13.1315 3.87999 12.0581 3.79999 10.9781 3.73999V3.73333L10.8315 2.86666C10.7315 2.25333 10.5848 1.33333 9.02481 1.33333H7.27815C5.72481 1.33333 5.57814 2.21333 5.47148 2.85999L5.33148 3.71333C4.71148 3.75333 4.09148 3.79333 3.47148 3.85333L2.11148 3.98666C1.83148 4.01333 1.63148 4.25999 1.65815 4.53333C1.68481 4.80666 1.92481 5.00666 2.20481 4.97999L3.56481 4.84666C7.05815 4.49999 10.5781 4.63333 14.1115 4.98666C14.1315 4.98666 14.1448 4.98666 14.1648 4.98666C14.4181 4.98666 14.6381 4.79333 14.6648 4.53333C14.6848 4.25999 14.4848 4.01333 14.2048 3.98666Z" fill="white" fill-opacity="0.72"/>
  <path d="M12.9784 5.92667C12.8184 5.76001 12.5984 5.66667 12.3717 5.66667H3.94503C3.71836 5.66667 3.4917 5.76001 3.33836 5.92667C3.18503 6.09334 3.09836 6.32001 3.11169 6.55334L3.52503 13.3933C3.59836 14.4067 3.6917 15.6733 6.01836 15.6733H10.2984C12.625 15.6733 12.7184 14.4133 12.7917 13.3933L13.205 6.56001C13.2184 6.32001 13.1317 6.09334 12.9784 5.92667ZM9.26503 12.3333H7.04503C6.7717 12.3333 6.54503 12.1067 6.54503 11.8333C6.54503 11.56 6.7717 11.3333 7.04503 11.3333H9.26503C9.53836 11.3333 9.76503 11.56 9.76503 11.8333C9.76503 12.1067 9.53836 12.3333 9.26503 12.3333ZM9.82503 9.66667H6.4917C6.21836 9.66667 5.9917 9.44001 5.9917 9.16667C5.9917 8.89334 6.21836 8.66667 6.4917 8.66667H9.82503C10.0984 8.66667 10.325 8.89334 10.325 9.16667C10.325 9.44001 10.0984 9.66667 9.82503 9.66667Z" fill="white" fill-opacity="0.72"/>
</svg>