<svg xmlns="http://www.w3.org/2000/svg" width="20" height="20" viewBox="0 0 20 20" fill="none">
  <path opacity="0.4" d="M19.9999 9.9999C19.9999 15.5229 15.5229 19.9999 9.9999 19.9999C4.4769 19.9999 -9.91821e-05 15.5229 -9.91821e-05 9.9999C-9.91821e-05 4.4779 4.4769 -9.91821e-05 9.9999 -9.91821e-05C15.5229 -9.91821e-05 19.9999 4.4779 19.9999 9.9999Z" fill="white"/>
  <path d="M13.8598 6.7049L12.2398 11.8249C12.1798 12.0349 12.0098 12.2049 11.7998 12.2659L6.6998 13.8649C6.3598 13.9759 6.0298 13.6449 6.1398 13.3049L7.7398 8.1749C7.7998 7.9649 7.9698 7.8049 8.1798 7.7349L13.2998 6.1349C13.6498 6.0249 13.9698 6.3549 13.8598 6.7049Z" fill="white"/>
</svg>