<svg width="16" height="16" viewBox="0 0 16 16" fill="none" xmlns="http://www.w3.org/2000/svg">
<path d="M14 14.6667H2C1.72667 14.6667 1.5 14.44 1.5 14.1667C1.5 13.8933 1.72667 13.6667 2 13.6667H14C14.2733 13.6667 14.5 13.8933 14.5 14.1667C14.5 14.44 14.2733 14.6667 14 14.6667Z" fill="white"/>
<path d="M12.6799 2.32C11.3866 1.02667 10.1199 0.993336 8.79322 2.32L7.98655 3.12667C7.91989 3.19334 7.89322 3.3 7.91989 3.39334C8.42655 5.16 9.83989 6.57334 11.6066 7.08C11.6332 7.08667 11.6599 7.09334 11.6866 7.09334C11.7599 7.09334 11.8266 7.06667 11.8799 7.01334L12.6799 6.20667C13.3399 5.55334 13.6599 4.92 13.6599 4.28C13.6666 3.62 13.3466 2.98 12.6799 2.32Z" fill="white"/>
<path d="M10.4066 7.68667C10.2132 7.59334 10.0266 7.50001 9.84655 7.39334C9.69989 7.30667 9.55989 7.21334 9.41989 7.11334C9.30655 7.04001 9.17322 6.93334 9.04655 6.82667C9.03322 6.82001 8.98655 6.78001 8.93322 6.72667C8.71322 6.54001 8.46655 6.30001 8.24655 6.03334C8.22655 6.02001 8.19322 5.97334 8.14655 5.91334C8.07989 5.83334 7.96655 5.70001 7.86655 5.54667C7.78655 5.44667 7.69322 5.30001 7.60655 5.15334C7.49989 4.97334 7.40655 4.79334 7.31322 4.60667C7.19085 4.34445 6.84668 4.26655 6.64206 4.47117L2.89322 8.22001C2.80655 8.30667 2.72655 8.47334 2.70655 8.58667L2.34655 11.14C2.27989 11.5933 2.40655 12.02 2.68655 12.3067C2.92655 12.54 3.25989 12.6667 3.61989 12.6667C3.69989 12.6667 3.77989 12.66 3.85989 12.6467L6.41989 12.2867C6.53989 12.2667 6.70655 12.1867 6.78655 12.1L10.5416 8.34498C10.7421 8.14445 10.6668 7.79943 10.4066 7.68667Z" fill="white"/>
</svg>
