<svg xmlns="http://www.w3.org/2000/svg" width="250" height="200" viewBox="0 0 250 200" fill="none">
  <path d="M121.813 132.921C146.441 132.921 166.406 113.016 166.406 88.4606C166.406 63.9057 146.441 44 121.813 44C97.1845 44 77.2192 63.9057 77.2192 88.4606C77.2192 113.016 97.1845 132.921 121.813 132.921Z" fill="#15171C" stroke="#F97535" stroke-width="2.5"/>
  <path fill-rule="evenodd" clip-rule="evenodd" d="M114.668 122.959C117.009 123.39 119.391 123.614 121.813 123.631C141.295 123.631 157.089 107.885 157.089 88.4606C157.089 69.0366 141.295 53.2903 121.813 53.2903C116.808 53.2903 112.047 54.3294 107.735 56.203C100.24 59.4589 94.1007 65.2348 90.3926 72.4573C87.928 77.2578 86.5376 82.6973 86.5376 88.4606C86.5376 93.6897 87.6822 98.6523 89.7352 103.113C91.2009 106.297 93.1297 109.226 95.4355 111.813" fill="#232429"/>
  <path d="M114.668 122.959C117.009 123.39 119.391 123.614 121.813 123.631C141.295 123.631 157.089 107.885 157.089 88.4606C157.089 69.0366 141.295 53.2903 121.813 53.2903C116.808 53.2903 112.047 54.3294 107.735 56.203C100.24 59.4589 94.1007 65.2348 90.3926 72.4573C87.928 77.2578 86.5376 82.6973 86.5376 88.4606C86.5376 93.6897 87.6822 98.6523 89.7352 103.113C91.2009 106.297 93.1297 109.226 95.4355 111.813" stroke="#F97535" stroke-width="2.5" stroke-linecap="round"/>
  <path d="M99.5791 115.767C102.439 118.084 105.669 119.964 109.168 121.304" stroke="#F97535" stroke-width="2.5" stroke-linecap="round"/>
  <path d="M158.42 123.631L166.407 131.594" stroke="#F97535" stroke-width="2.5"/>
  <path fill-rule="evenodd" clip-rule="evenodd" d="M165.116 130.307C162.597 132.819 162.597 136.892 165.116 139.404L179.872 154.116C182.392 156.628 186.477 156.628 188.996 154.116C191.516 151.604 191.516 147.531 188.996 145.019L174.24 130.307C171.721 127.795 167.636 127.795 165.116 130.307Z" fill="#414455" stroke="#F97535" stroke-width="2.5"/>
  <path d="M171.731 132.921L186.374 147.52" stroke="#232429" stroke-width="2.5" stroke-linecap="round"/>
  <path fill-rule="evenodd" clip-rule="evenodd" d="M113.161 73.1981C113.161 88.5907 125.676 101.069 141.115 101.069C144.148 101.069 147.068 100.587 149.802 99.6968C145.339 110.74 134.489 118.536 121.813 118.536C105.153 118.536 91.6482 105.071 91.6482 88.4607C91.6482 73.4098 102.737 60.9412 117.214 58.7332C114.642 62.9513 113.161 67.9022 113.161 73.1981Z" fill="#414455"/>
  <path d="M122.479 63.908C120.784 63.908 119.127 64.0742 117.526 64.3913M112.688 65.867C103.581 69.6823 97.1868 78.6588 97.1868 89.1244" stroke="#FFD9C7" stroke-width="2.5" stroke-linecap="round"/>
  <path d="M193.263 88.8288H182.38M201.682 78.5068H178.818H201.682ZM211 78.5068H208.043H211Z" stroke="#FFD9C7" stroke-width="2.5" stroke-linecap="round" stroke-linejoin="round"/>
  <path d="M73.4597 118.027H62.5765M67.2355 106.377H44.372H67.2355ZM36.619 106.377H31H36.619Z" stroke="#FFD9C7" stroke-width="2.5" stroke-linecap="round" stroke-linejoin="round"/>
</svg>