<svg xmlns="http://www.w3.org/2000/svg" width="23" height="27" viewBox="0 0 23 27" fill="none">
  <path fill-rule="evenodd" clip-rule="evenodd" d="M5.15418 25.5468L3.28278 26.6863C1.84003 27.5541 0 26.5191 0 24.8359V2.17001C0 0.476342 1.84003 -0.558674 3.28278 0.319523L9.53471 4.11459C9.25243 4.06231 8.9597 4.03095 8.65651 4.03095C5.68737 4.03095 3.27233 6.37281 3.12596 9.30013H5.48873C5.83374 9.30013 6.17874 9.58241 6.19965 9.93787C6.22056 10.3247 5.90692 10.6488 5.52009 10.6488H3.12596V11.9661H5.52009C5.90692 11.9661 6.22056 12.2797 6.19965 12.677C6.17874 13.0429 5.85465 13.3147 5.48873 13.3147H3.12596V14.6216H5.48873C5.83374 14.6216 6.17874 14.9143 6.19965 15.2698C6.22056 15.6566 5.90692 15.9807 5.52009 15.9807H3.12596C3.27233 18.908 5.68737 21.2394 8.65651 21.2394C8.75061 21.2394 8.8447 21.229 8.94925 21.229L7.83059 22.4313V23.9263L7.7365 23.9786H6.79557C5.91738 23.9786 5.196 24.679 5.15418 25.5468ZM21.9654 15.3534L9.48244 22.9226V21.1767C12.0543 20.7899 14.0512 18.6257 14.1766 15.9807H11.7825C11.3957 15.9807 11.0925 15.6566 11.1029 15.2698C11.1238 14.9143 11.4688 14.6216 11.8243 14.6216H14.1871V13.3147H11.7825C11.3957 13.3147 11.0925 12.9907 11.1029 12.6038C11.1238 12.2379 11.4584 11.9661 11.8243 11.9661H14.1871V10.6488H11.8243C11.4688 10.6488 11.1238 10.3665 11.1029 10.0111C11.0925 9.62423 11.3957 9.30013 11.7825 9.30013H14.1766C14.1243 8.16057 13.7271 7.11509 13.0893 6.25781L21.9654 11.6524C23.3559 12.4888 23.3559 14.5066 21.9654 15.3534Z" fill="url(#paint0_linear_3676_2372)"/>
  <path style="mix-blend-mode:multiply" fill-rule="evenodd" clip-rule="evenodd" d="M8.94925 21.229L7.83059 22.4313V23.9263L7.7365 23.9786H6.79557C5.91738 23.9786 5.196 24.679 5.15418 25.5468L3.28278 26.6863C1.84003 27.5541 0 26.5191 0 24.8359V2.17001C0 0.476342 1.84003 -0.558674 3.28278 0.319523L9.53471 4.11459C9.25243 4.06231 8.9597 4.03095 8.65651 4.03095C5.68737 4.03095 3.27233 6.37281 3.12596 9.30013H5.48873C5.83374 9.30013 6.17874 9.58241 6.19965 9.93787C6.22056 10.3247 5.90692 10.6488 5.52009 10.6488H3.12596V11.9661H5.52009C5.90692 11.9661 6.22056 12.2797 6.19965 12.677C6.17874 13.0429 5.85465 13.3147 5.48873 13.3147H3.12596V14.6216H5.48873C5.83374 14.6216 6.17874 14.9143 6.19965 15.2698C6.22056 15.6566 5.90692 15.9807 5.52009 15.9807H3.12596C3.27233 18.908 5.68737 21.2394 8.65651 21.2394C8.75061 21.2394 8.8447 21.229 8.94925 21.229ZM16.163 18.8662L9.48244 22.9226V21.1767C12.0543 20.7899 14.0512 18.6257 14.1766 15.9807H11.7825C11.3957 15.9807 11.0925 15.6566 11.1029 15.2698C11.1238 14.9143 11.4688 14.6216 11.8243 14.6216H14.1871V13.3147H11.7825C11.3957 13.3147 11.0925 12.9907 11.1029 12.6038C11.1238 12.2379 11.4584 11.9661 11.8243 11.9661H14.1871V10.8788C14.6784 12.0497 15.0966 13.2625 15.4312 14.517C15.8285 16.0225 16.0689 17.4757 16.163 18.8662ZM11.7825 9.30013H13.4552C13.6783 9.73923 13.8874 10.1888 14.0825 10.6488H11.8243C11.4688 10.6488 11.1238 10.3665 11.1029 10.0111C11.0925 9.62423 11.3957 9.30013 11.7825 9.30013Z" fill="url(#paint1_linear_3676_2372)"/>
  <path style="mix-blend-mode:screen" fill-rule="evenodd" clip-rule="evenodd" d="M3.12596 11.4956V10.6488H5.52009C5.90692 10.6488 6.22056 10.3247 6.19965 9.93787C6.17874 9.58241 5.83374 9.30013 5.48873 9.30013H3.12596C3.27233 6.37281 5.68737 4.03095 8.65651 4.03095C8.9597 4.03095 9.25243 4.06231 9.53471 4.11459L3.28278 0.319523C1.84003 -0.558674 0 0.476342 0 2.17001V8.92376C0.920016 9.85423 1.96549 10.7115 3.12596 11.4956ZM6.19965 12.677C6.22056 12.2797 5.90692 11.9661 5.52009 11.9661H3.84734C4.52341 12.3843 5.23085 12.7746 5.96965 13.137C6.10556 13.022 6.1892 12.8547 6.19965 12.677ZM21.9654 11.6524L13.0893 6.25781C13.7271 7.11509 14.1243 8.16057 14.1766 9.30013H11.7825C11.3957 9.30013 11.0925 9.62423 11.1029 10.0111C11.1238 10.3665 11.4688 10.6488 11.8243 10.6488H14.1871V11.9661H11.8243C11.4584 11.9661 11.1238 12.2379 11.1029 12.6038C11.0925 12.9907 11.3957 13.3147 11.7825 13.3147H14.1871V14.6216H11.8243C11.5525 14.6216 11.3016 14.7889 11.1761 15.0189C12.2007 15.2698 13.2566 15.4684 14.3334 15.5939C17.083 15.9284 19.6862 15.803 22.0386 15.3011C23.3454 14.4334 23.3245 12.4784 21.9654 11.6524Z" fill="url(#paint2_linear_3676_2372)"/>
  <path style="mix-blend-mode:screen" fill-rule="evenodd" clip-rule="evenodd" d="M21.9654 15.3534L9.48244 22.9226V21.1767C12.0543 20.7899 14.0512 18.6258 14.1766 15.9807H11.7825C11.3957 15.9807 11.0925 15.6566 11.1029 15.2698C11.1238 14.9143 11.4688 14.6216 11.8243 14.6216H14.1871V13.3148H11.7825C11.3957 13.3148 11.0925 12.9907 11.1029 12.6038C11.1238 12.2379 11.4584 11.9661 11.8243 11.9661H14.1871V10.6488H11.8243C11.4688 10.6488 11.1238 10.3665 11.1029 10.0111C11.0925 9.62423 11.3957 9.30014 11.7825 9.30014H14.1766C14.1348 8.50558 13.9257 7.75284 13.5911 7.08373C13.8351 7.05585 14.079 7.03146 14.323 7.01055L21.9654 11.6524C23.3559 12.4888 23.3559 14.5066 21.9654 15.3534ZM0 24.8359V16.2943C0.836378 14.7157 1.96549 13.2416 3.3246 11.9661H5.52009C5.90692 11.9661 6.22056 12.2797 6.19965 12.677C6.17874 13.0429 5.85465 13.3148 5.48873 13.3148H3.12596V14.6216H5.48873C5.83374 14.6216 6.17874 14.9143 6.19965 15.2698C6.22056 15.6566 5.90692 15.9807 5.52009 15.9807H3.12596C3.27233 18.908 5.68737 21.2394 8.65651 21.2394C8.75061 21.2394 8.8447 21.229 8.94925 21.229L7.83059 22.4313V23.9263L7.7365 23.9786H6.79557C5.91738 23.9786 5.196 24.679 5.15418 25.5468L3.28278 26.6863C1.84003 27.5541 0 26.5191 0 24.8359ZM4.86145 10.6488C5.27964 10.3352 5.71177 10.0389 6.15783 9.76014C6.17874 9.81242 6.19965 9.87515 6.19965 9.93788C6.22056 10.3247 5.90692 10.6488 5.52009 10.6488H4.86145Z" fill="url(#paint3_linear_3676_2372)"/>
  <defs>
    <linearGradient id="paint0_linear_3676_2372" x1="16.5285" y1="-10.8157" x2="45.68" y2="18.3358" gradientUnits="userSpaceOnUse">
      <stop stop-color="#FD6D6D"/>
      <stop offset="1" stop-color="#F97535"/>
    </linearGradient>
    <linearGradient id="paint1_linear_3676_2372" x1="-16.282" y1="1.72432" x2="0.389741" y2="-14.0819" gradientUnits="userSpaceOnUse">
      <stop stop-color="white"/>
      <stop offset="0.987" stop-color="#D937BE"/>
      <stop offset="1" stop-color="#D837BF"/>
    </linearGradient>
    <linearGradient id="paint2_linear_3676_2372" x1="14.4576" y1="-7.68138" x2="22.8076" y2="18.4645" gradientUnits="userSpaceOnUse">
      <stop stop-color="#FD6D6D"/>
      <stop offset="0.5" stop-color="#71381D"/>
      <stop offset="1" stop-color="#F97535"/>
    </linearGradient>
    <linearGradient id="paint3_linear_3676_2372" x1="6.15281" y1="-10.2136" x2="25.248" y2="13.2306" gradientUnits="userSpaceOnUse">
      <stop stop-color="#FD6D6D"/>
      <stop offset="1"/>
    </linearGradient>
  </defs>
</svg>