<svg xmlns="http://www.w3.org/2000/svg" width="23" height="24" viewBox="0 0 23 24" fill="none">
  <path opacity="0.4" d="M11.2284 22.0001C16.409 22.0001 20.6088 17.5229 20.6088 12.0001C20.6088 6.47721 16.409 2.00006 11.2284 2.00006C6.04769 2.00006 1.84793 6.47721 1.84793 12.0001C1.84793 17.5229 6.04769 22.0001 11.2284 22.0001Z" fill="white"/>
  <path d="M14.0425 10.2301L11.3222 8.56006C10.6468 8.14006 9.83068 8.14006 9.15529 8.56006C8.4799 8.98006 8.07654 9.72006 8.07654 10.5601V13.9101C8.07654 14.7401 8.4799 15.4901 9.15529 15.9101C9.49298 16.1201 9.8682 16.2201 10.234 16.2201C10.6093 16.2201 10.9751 16.1201 11.3128 15.9101L14.0331 14.2401C14.7085 13.8201 15.1119 13.0801 15.1119 12.2401C15.1306 11.4001 14.7273 10.6501 14.0425 10.2301Z" fill="white"/>
</svg>