<svg xmlns="http://www.w3.org/2000/svg" width="20" height="20" viewBox="0 0 20 20" fill="none">
  <path d="M14.5752 7.99995L4.66683 13.975C4.0835 14.325 3.3335 13.9083 3.3335 13.225V6.55828C3.3335 3.64995 6.47516 1.83328 9.00016 3.28328L12.8252 5.48328L14.5668 6.48328C15.1418 6.82495 15.1502 7.65828 14.5752 7.99995Z" fill="white"/>
  <path d="M15.075 12.8834L11.7 14.8334L8.33334 16.775C7.125 17.4667 5.75834 17.325 4.76667 16.625C4.28334 16.2917 4.34167 15.55 4.85001 15.25L15.4417 8.90003C15.9417 8.60003 16.6 8.88337 16.6917 9.45837C16.9 10.75 16.3667 12.1417 15.075 12.8834Z" fill="white"/>
</svg>