<svg xmlns="http://www.w3.org/2000/svg" width="24" height="24" viewBox="0 0 24 24" fill="none">
  <path d="M8.60999 4.8C8.50163 4.90045 8.41413 5.02126 8.35247 5.15554C8.29082 5.28981 8.25622 5.43492 8.25064 5.58257C8.24507 5.73022 8.26864 5.87752 8.32 6.01606C8.37136 6.1546 8.44951 6.28166 8.54998 6.39L13.8405 12L8.54998 17.61C8.44952 17.7183 8.37138 17.8454 8.32003 17.9839C8.26868 18.1225 8.24511 18.2698 8.25068 18.4174C8.25626 18.5651 8.29085 18.7102 8.3525 18.8444C8.41415 18.9787 8.50164 19.0995 8.60998 19.2C8.71832 19.3005 8.84539 19.3786 8.98393 19.43C9.12247 19.4813 9.26977 19.5049 9.41741 19.4993C9.56506 19.4937 9.71016 19.4591 9.84443 19.3975C9.97871 19.3358 10.0995 19.2483 10.2 19.14L16.2 12.765C16.3929 12.557 16.5001 12.2837 16.5001 12C16.5001 11.7163 16.3929 11.443 16.2 11.235L10.2 4.86C10.0995 4.75164 9.97872 4.66414 9.84444 4.60248C9.71017 4.54083 9.56506 4.50623 9.41741 4.50065C9.26976 4.49508 9.12246 4.51865 8.98392 4.57001C8.84539 4.62137 8.71832 4.69952 8.60999 4.8Z" fill="#F97535"/>
</svg>