<svg width="16" height="17" viewBox="0 0 16 17" fill="none" xmlns="http://www.w3.org/2000/svg">
<path d="M8.03359 1.41676C8.29923 1.17939 8.70077 1.17939 8.96641 1.41676L10.5848 2.86284C10.703 2.96848 10.8536 3.03086 11.0119 3.03976L13.1788 3.16159C13.5345 3.18159 13.8184 3.46552 13.8384 3.82119L13.9602 5.9881C13.9691 6.1464 14.0315 6.29698 14.1372 6.41521L15.5832 8.03359C15.8206 8.29923 15.8206 8.70077 15.5832 8.96641L14.1372 10.5848C14.0315 10.703 13.9691 10.8536 13.9602 11.0119L13.8384 13.1788C13.8184 13.5345 13.5345 13.8184 13.1788 13.8384L11.0119 13.9602C10.8536 13.9691 10.703 14.0315 10.5848 14.1372L8.96641 15.5832C8.70077 15.8206 8.29923 15.8206 8.03359 15.5832L6.41521 14.1372C6.29698 14.0315 6.1464 13.9691 5.9881 13.9602L3.82119 13.8384C3.46552 13.8184 3.18159 13.5345 3.16159 13.1788L3.03976 11.0119C3.03086 10.8536 2.96848 10.703 2.86284 10.5848L1.41676 8.96641C1.17939 8.70077 1.17939 8.29923 1.41676 8.03359L2.86284 6.41521C2.96848 6.29698 3.03086 6.1464 3.03976 5.9881L3.16159 3.82119C3.18159 3.46552 3.46552 3.18159 3.82119 3.16159L5.9881 3.03976C6.1464 3.03086 6.29698 2.96848 6.41521 2.86284L8.03359 1.41676Z" fill="#13A8F2"/>
<path d="M5.875 8.875L7.375 10.375L11.125 6.625" stroke="white" stroke-width="1.5" stroke-linecap="round" stroke-linejoin="round"/>
</svg>
