<svg xmlns="http://www.w3.org/2000/svg" width="24" height="24" viewBox="0 0 24 24" fill="none">
  <path opacity="0.4" d="M12 22C17.5228 22 22 17.5228 22 12C22 6.47715 17.5228 2 12 2C6.47715 2 2 6.47715 2 12C2 17.5228 6.47715 22 12 22Z" fill="white"/>
  <path d="M15.71 15.93C15.58 15.93 15.45 15.9 15.33 15.82L12.23 13.97C11.46 13.51 10.89 12.5 10.89 11.61V7.51001C10.89 7.10001 11.23 6.76001 11.64 6.76001C12.05 6.76001 12.39 7.10001 12.39 7.51001V11.61C12.39 11.97 12.69 12.5 13 12.68L16.1 14.53C16.46 14.74 16.57 15.2 16.36 15.56C16.21 15.8 15.96 15.93 15.71 15.93Z" fill="white"/>
</svg>